<svg width="16" height="16" viewBox="0 0 16 16" fill="none" xmlns="http://www.w3.org/2000/svg">
<path d="M6.825 12.325L11.425 8.225C11.575 8.09167 11.6167 7.93333 11.55 7.75C11.4833 7.56667 11.35 7.45833 11.15 7.425L7.55 7.075L9.7 4.1C9.75 4.01667 9.77917 3.9375 9.7875 3.8625C9.79583 3.7875 9.76667 3.71667 9.7 3.65C9.63333 3.56667 9.55 3.52917 9.45 3.5375C9.35 3.54583 9.25833 3.58333 9.175 3.65L4.6 7.75C4.45 7.88333 4.40833 8.04167 4.475 8.225C4.54167 8.40833 4.675 8.51667 4.875 8.55L8.475 8.9L6.3 11.875C6.25 11.9583 6.225 12.0375 6.225 12.1125C6.225 12.1875 6.25833 12.2583 6.325 12.325C6.39167 12.3917 6.47083 12.425 6.5625 12.425C6.65417 12.425 6.74167 12.3917 6.825 12.325ZM8 16C7.06667 16 6.1875 15.8542 5.3625 15.5625C4.5375 15.2708 3.78333 14.8583 3.1 14.325L1.725 15.7C1.625 15.8 1.5125 15.875 1.3875 15.925C1.2625 15.975 1.13333 16 1 16C0.716667 16 0.479167 15.9042 0.2875 15.7125C0.0958333 15.5208 0 15.2833 0 15C0 14.8667 0.025 14.7375 0.075 14.6125C0.125 14.4875 0.2 14.375 0.3 14.275L1.675 12.9C1.14167 12.2167 0.729167 11.4625 0.4375 10.6375C0.145833 9.8125 0 8.93333 0 8C0 5.76667 0.775 3.875 2.325 2.325C3.875 0.775 5.76667 0 8 0H14C14.55 0 15.0208 0.195833 15.4125 0.5875C15.8042 0.979167 16 1.45 16 2V8C16 10.2333 15.225 12.125 13.675 13.675C12.125 15.225 10.2333 16 8 16Z" fill="#92E34A"/>
</svg>
