<svg width="24" height="25" viewBox="0 0 24 25" fill="none" xmlns="http://www.w3.org/2000/svg">
<path d="M7.82505 13.5L12.725 18.4C12.925 18.6 13.0209 18.8334 13.0125 19.1C13.0042 19.3667 12.9 19.6 12.7 19.8C12.5 19.9834 12.2667 20.0792 12 20.0875C11.7334 20.0959 11.5 20 11.3 19.8L4.70005 13.2C4.60005 13.1 4.52922 12.9917 4.48755 12.875C4.44588 12.7584 4.42505 12.6334 4.42505 12.5C4.42505 12.3667 4.44588 12.2417 4.48755 12.125C4.52922 12.0084 4.60005 11.9 4.70005 11.8L11.3 5.20005C11.4834 5.01672 11.7125 4.92505 11.9875 4.92505C12.2625 4.92505 12.5 5.01672 12.7 5.20005C12.9 5.40005 13 5.63755 13 5.91255C13 6.18755 12.9 6.42505 12.7 6.62505L7.82505 11.5H19C19.2834 11.5 19.5209 11.5959 19.7125 11.7875C19.9042 11.9792 20 12.2167 20 12.5C20 12.7834 19.9042 13.0209 19.7125 13.2125C19.5209 13.4042 19.2834 13.5 19 13.5H7.82505Z" fill="white"/>
</svg>
