    <svg width="28" height="29" viewBox="0 0 28 29" fill="none" xmlns="http://www.w3.org/2000/svg">
          <path d="M14 25C12.5611 25 11.2049 24.7229 9.93125 24.1688C8.65764 23.6146 7.54444 22.8611 6.59167 21.9083C5.63889 20.9556 4.88542 19.8424 4.33125 18.5688C3.77708 17.2951 3.5 15.9389 3.5 14.5C3.5 12.9833 3.79167 11.5639 4.375 10.2417C4.95833 8.91944 5.775 7.78194 6.825 6.82917C7.05833 6.61528 7.33542 6.51319 7.65625 6.52292C7.97708 6.53264 8.24444 6.64444 8.45833 6.85833L14.8167 13.2167C15.0306 13.4306 15.1375 13.7028 15.1375 14.0333C15.1375 14.3639 15.0306 14.6361 14.8167 14.85C14.6028 15.0639 14.3306 15.1708 14 15.1708C13.6694 15.1708 13.3972 15.0639 13.1833 14.85L7.7 9.36667C7.11667 10.0667 6.65972 10.8493 6.32917 11.7146C5.99861 12.5799 5.83333 13.5083 5.83333 14.5C5.83333 16.7556 6.63056 18.6806 8.225 20.275C9.81944 21.8694 11.7444 22.6667 14 22.6667C16.2556 22.6667 18.1806 21.8694 19.775 20.275C21.3694 18.6806 22.1667 16.7556 22.1667 14.5C22.1667 12.4194 21.5007 10.6257 20.1688 9.11875C18.8368 7.61181 17.1694 6.72222 15.1667 6.45V7.5C15.1667 7.83056 15.0549 8.10764 14.8313 8.33125C14.6076 8.55486 14.3306 8.66667 14 8.66667C13.6694 8.66667 13.3924 8.55486 13.1687 8.33125C12.9451 8.10764 12.8333 7.83056 12.8333 7.5V5.16667C12.8333 4.83611 12.9451 4.55903 13.1687 4.33542C13.3924 4.11181 13.6694 4 14 4C15.4389 4 16.7951 4.27708 18.0688 4.83125C19.3424 5.38542 20.4556 6.13889 21.4083 7.09167C22.3611 8.04444 23.1146 9.15764 23.6688 10.4313C24.2229 11.7049 24.5 13.0611 24.5 14.5C24.5 15.9389 24.2229 17.2951 23.6688 18.5688C23.1146 19.8424 22.3611 20.9556 21.4083 21.9083C20.4556 22.8611 19.3424 23.6146 18.0688 24.1688C16.7951 24.7229 15.4389 25 14 25ZM8.16667 15.6667C7.83611 15.6667 7.55903 15.5549 7.33542 15.3313C7.11181 15.1076 7 14.8306 7 14.5C7 14.1694 7.11181 13.8924 7.33542 13.6687C7.55903 13.4451 7.83611 13.3333 8.16667 13.3333C8.49722 13.3333 8.77431 13.4451 8.99792 13.6687C9.22153 13.8924 9.33333 14.1694 9.33333 14.5C9.33333 14.8306 9.22153 15.1076 8.99792 15.3313C8.77431 15.5549 8.49722 15.6667 8.16667 15.6667ZM14 21.5C13.6694 21.5 13.3924 21.3882 13.1687 21.1646C12.9451 20.941 12.8333 20.6639 12.8333 20.3333C12.8333 20.0028 12.9451 19.7257 13.1687 19.5021C13.3924 19.2785 13.6694 19.1667 14 19.1667C14.3306 19.1667 14.6076 19.2785 14.8313 19.5021C15.0549 19.7257 15.1667 20.0028 15.1667 20.3333C15.1667 20.6639 15.0549 20.941 14.8313 21.1646C14.6076 21.3882 14.3306 21.5 14 21.5ZM19.8333 15.6667C19.5028 15.6667 19.2257 15.5549 19.0021 15.3313C18.7785 15.1076 18.6667 14.8306 18.6667 14.5C18.6667 14.1694 18.7785 13.8924 19.0021 13.6687C19.2257 13.4451 19.5028 13.3333 19.8333 13.3333C20.1639 13.3333 20.441 13.4451 20.6646 13.6687C20.8882 13.8924 21 14.1694 21 14.5C21 14.8306 20.8882 15.1076 20.6646 15.3313C20.441 15.5549 20.1639 15.6667 19.8333 15.6667Z" fill="#E8EAED"/>
          </svg>