<svg width="25" height="24" viewBox="0 0 25 24" fill="none" xmlns="http://www.w3.org/2000/svg">
<path d="M11.1665 17.85L8.5915 20.375C8.40817 20.5583 8.179 20.65 7.904 20.65C7.629 20.65 7.39984 20.55 7.2165 20.35C7.0165 20.1667 6.9165 19.9375 6.9165 19.6625C6.9165 19.3875 7.0165 19.15 7.2165 18.95L11.1665 15V13H9.1665L5.1915 16.975C5.00817 17.1583 4.779 17.25 4.504 17.25C4.229 17.25 3.9915 17.15 3.7915 16.95C3.60817 16.7667 3.5165 16.5375 3.5165 16.2625C3.5165 15.9875 3.60817 15.7583 3.7915 15.575L6.3165 13H3.1415C2.85817 13 2.62484 12.9042 2.4415 12.7125C2.25817 12.5208 2.1665 12.2833 2.1665 12C2.1665 11.7167 2.26234 11.4792 2.454 11.2875C2.64567 11.0958 2.88317 11 3.1665 11H6.3165L3.7915 8.45C3.60817 8.26667 3.5165 8.0375 3.5165 7.7625C3.5165 7.4875 3.6165 7.25 3.8165 7.05C3.99984 6.86667 4.229 6.775 4.504 6.775C4.779 6.775 5.0165 6.86667 5.2165 7.05L9.1665 11H11.1665V9L7.1915 5.05C7.00817 4.86667 6.9165 4.6375 6.9165 4.3625C6.9165 4.0875 7.0165 3.85 7.2165 3.65C7.39984 3.46667 7.629 3.375 7.904 3.375C8.179 3.375 8.40817 3.46667 8.5915 3.65L11.1665 6.15V3C11.1665 2.71667 11.2623 2.47917 11.454 2.2875C11.6457 2.09583 11.8832 2 12.1665 2C12.4498 2 12.6873 2.09583 12.879 2.2875C13.0707 2.47917 13.1665 2.71667 13.1665 3V6.15L15.7165 3.65C15.8998 3.46667 16.129 3.375 16.404 3.375C16.679 3.375 16.9165 3.46667 17.1165 3.65C17.2998 3.85 17.3915 4.0875 17.3915 4.3625C17.3915 4.6375 17.2998 4.86667 17.1165 5.05L13.1665 9V11H15.1665L19.1165 7.05C19.2998 6.86667 19.529 6.775 19.804 6.775C20.079 6.775 20.3165 6.875 20.5165 7.075C20.6998 7.25833 20.7915 7.4875 20.7915 7.7625C20.7915 8.0375 20.6998 8.26667 20.5165 8.45L18.0165 11H21.1665C21.4498 11 21.6873 11.0958 21.879 11.2875C22.0707 11.4792 22.1665 11.7167 22.1665 12C22.1665 12.2833 22.0707 12.5208 21.879 12.7125C21.6873 12.9042 21.4498 13 21.1665 13H18.0165L20.5165 15.575C20.6998 15.7583 20.7915 15.9875 20.7915 16.2625C20.7915 16.5375 20.6998 16.7667 20.5165 16.95C20.3165 17.15 20.079 17.25 19.804 17.25C19.529 17.25 19.2998 17.15 19.1165 16.95L15.1665 13H13.1665V15L17.1165 18.975C17.2998 19.1583 17.3915 19.3875 17.3915 19.6625C17.3915 19.9375 17.2915 20.175 17.0915 20.375C16.9082 20.5583 16.679 20.65 16.404 20.65C16.129 20.65 15.8998 20.5583 15.7165 20.375L13.1665 17.85V21.025C13.1665 21.3083 13.0707 21.5417 12.879 21.725C12.6873 21.9083 12.4498 22 12.1665 22C11.8832 22 11.6457 21.9042 11.454 21.7125C11.2623 21.5208 11.1665 21.2833 11.1665 21V17.85Z" fill="white"/>
</svg>
