<svg width="21" height="20" viewBox="0 0 21 20" fill="none" xmlns="http://www.w3.org/2000/svg">
<path d="M9.1665 15.85L6.5915 18.375C6.40817 18.5583 6.179 18.65 5.904 18.65C5.629 18.65 5.39984 18.55 5.2165 18.35C5.0165 18.1667 4.9165 17.9375 4.9165 17.6625C4.9165 17.3875 5.0165 17.15 5.2165 16.95L9.1665 13V11H7.1665L3.1915 14.975C3.00817 15.1583 2.779 15.25 2.504 15.25C2.229 15.25 1.9915 15.15 1.7915 14.95C1.60817 14.7667 1.5165 14.5375 1.5165 14.2625C1.5165 13.9875 1.60817 13.7583 1.7915 13.575L4.3165 11H1.1415C0.858171 11 0.624837 10.9042 0.441504 10.7125C0.258171 10.5208 0.166504 10.2833 0.166504 10C0.166504 9.71667 0.262337 9.47917 0.454004 9.2875C0.645671 9.09583 0.883171 9 1.1665 9H4.3165L1.7915 6.45C1.60817 6.26667 1.5165 6.0375 1.5165 5.7625C1.5165 5.4875 1.6165 5.25 1.8165 5.05C1.99984 4.86667 2.229 4.775 2.504 4.775C2.779 4.775 3.0165 4.86667 3.2165 5.05L7.1665 9H9.1665V7L5.1915 3.05C5.00817 2.86667 4.9165 2.6375 4.9165 2.3625C4.9165 2.0875 5.0165 1.85 5.2165 1.65C5.39984 1.46667 5.629 1.375 5.904 1.375C6.179 1.375 6.40817 1.46667 6.5915 1.65L9.1665 4.15V1C9.1665 0.716667 9.26234 0.479167 9.454 0.2875C9.64567 0.0958333 9.88317 0 10.1665 0C10.4498 0 10.6873 0.0958333 10.879 0.2875C11.0707 0.479167 11.1665 0.716667 11.1665 1V4.15L13.7165 1.65C13.8998 1.46667 14.129 1.375 14.404 1.375C14.679 1.375 14.9165 1.46667 15.1165 1.65C15.2998 1.85 15.3915 2.0875 15.3915 2.3625C15.3915 2.6375 15.2998 2.86667 15.1165 3.05L11.1665 7V9H13.1665L17.1165 5.05C17.2998 4.86667 17.529 4.775 17.804 4.775C18.079 4.775 18.3165 4.875 18.5165 5.075C18.6998 5.25833 18.7915 5.4875 18.7915 5.7625C18.7915 6.0375 18.6998 6.26667 18.5165 6.45L16.0165 9H19.1665C19.4498 9 19.6873 9.09583 19.879 9.2875C20.0707 9.47917 20.1665 9.71667 20.1665 10C20.1665 10.2833 20.0707 10.5208 19.879 10.7125C19.6873 10.9042 19.4498 11 19.1665 11H16.0165L18.5165 13.575C18.6998 13.7583 18.7915 13.9875 18.7915 14.2625C18.7915 14.5375 18.6998 14.7667 18.5165 14.95C18.3165 15.15 18.079 15.25 17.804 15.25C17.529 15.25 17.2998 15.15 17.1165 14.95L13.1665 11H11.1665V13L15.1165 16.975C15.2998 17.1583 15.3915 17.3875 15.3915 17.6625C15.3915 17.9375 15.2915 18.175 15.0915 18.375C14.9082 18.5583 14.679 18.65 14.404 18.65C14.129 18.65 13.8998 18.5583 13.7165 18.375L11.1665 15.85V19.025C11.1665 19.3083 11.0707 19.5417 10.879 19.725C10.6873 19.9083 10.4498 20 10.1665 20C9.88317 20 9.64567 19.9042 9.454 19.7125C9.26234 19.5208 9.1665 19.2833 9.1665 19V15.85Z" fill="#63676F"/>
</svg>
