<svg width="25" height="17" viewBox="0 0 25 17" fill="none" xmlns="http://www.w3.org/2000/svg">
<path d="M12.2128 10.3L8.51284 14C8.21284 14.3 7.87117 14.4458 7.48784 14.4375C7.1045 14.4292 6.76284 14.275 6.46284 13.975C6.16284 13.675 6.01284 13.3292 6.01284 12.9375C6.01284 12.5458 6.16284 12.2 6.46284 11.9L10.1378 8.225L6.43784 4.525C6.13784 4.225 5.992 3.87917 6.00034 3.4875C6.00867 3.09583 6.16284 2.75 6.46284 2.45C6.76284 2.15 7.10867 2 7.50034 2C7.892 2 8.23784 2.15 8.53784 2.45L12.2128 6.15L15.9128 2.45C16.2128 2.15 16.5587 2 16.9503 2C17.342 2 17.6878 2.15 17.9878 2.45C18.2878 2.75 18.4378 3.09583 18.4378 3.4875C18.4378 3.87917 18.2878 4.225 17.9878 4.525L14.2878 8.225L17.9878 11.925C18.2878 12.225 18.4378 12.5667 18.4378 12.95C18.4378 13.3333 18.2878 13.675 17.9878 13.975C17.6878 14.275 17.342 14.425 16.9503 14.425C16.5587 14.425 16.2128 14.275 15.9128 13.975L12.2128 10.3Z" fill="url(#paint0_linear_1211_970)"/>
<defs>
<linearGradient id="paint0_linear_1211_970" x1="12.2189" y1="2" x2="12.2189" y2="14.4378" gradientUnits="userSpaceOnUse">
<stop stop-color="#F37368"/>
<stop offset="1" stop-color="#C23E33"/>
</linearGradient>
</defs>
</svg>
