<svg width="21" height="20" viewBox="0 0 21 20" fill="none" xmlns="http://www.w3.org/2000/svg">
<path d="M6.3335 17.5C5.87516 17.5 5.4828 17.3368 5.15641 17.0104C4.83002 16.684 4.66683 16.2917 4.66683 15.8333V5C4.43072 5 4.2328 4.92014 4.07308 4.76042C3.91336 4.60069 3.8335 4.40278 3.8335 4.16667C3.8335 3.93056 3.91336 3.73264 4.07308 3.57292C4.2328 3.41319 4.43072 3.33333 4.66683 3.33333H8.00016C8.00016 3.09722 8.08002 2.89931 8.23975 2.73958C8.39947 2.57986 8.59738 2.5 8.8335 2.5H12.1668C12.4029 2.5 12.6009 2.57986 12.7606 2.73958C12.9203 2.89931 13.0002 3.09722 13.0002 3.33333H16.3335C16.5696 3.33333 16.7675 3.41319 16.9272 3.57292C17.087 3.73264 17.1668 3.93056 17.1668 4.16667C17.1668 4.40278 17.087 4.60069 16.9272 4.76042C16.7675 4.92014 16.5696 5 16.3335 5V15.8333C16.3335 16.2917 16.1703 16.684 15.8439 17.0104C15.5175 17.3368 15.1252 17.5 14.6668 17.5H6.3335ZM14.6668 5H6.3335V15.8333H14.6668V5ZM8.8335 14.1667C9.06961 14.1667 9.26752 14.0868 9.42725 13.9271C9.58697 13.7674 9.66683 13.5694 9.66683 13.3333V7.5C9.66683 7.26389 9.58697 7.06597 9.42725 6.90625C9.26752 6.74653 9.06961 6.66667 8.8335 6.66667C8.59738 6.66667 8.39947 6.74653 8.23975 6.90625C8.08002 7.06597 8.00016 7.26389 8.00016 7.5V13.3333C8.00016 13.5694 8.08002 13.7674 8.23975 13.9271C8.39947 14.0868 8.59738 14.1667 8.8335 14.1667ZM12.1668 14.1667C12.4029 14.1667 12.6009 14.0868 12.7606 13.9271C12.9203 13.7674 13.0002 13.5694 13.0002 13.3333V7.5C13.0002 7.26389 12.9203 7.06597 12.7606 6.90625C12.6009 6.74653 12.4029 6.66667 12.1668 6.66667C11.9307 6.66667 11.7328 6.74653 11.5731 6.90625C11.4134 7.06597 11.3335 7.26389 11.3335 7.5V13.3333C11.3335 13.5694 11.4134 13.7674 11.5731 13.9271C11.7328 14.0868 11.9307 14.1667 12.1668 14.1667Z" fill="#D2D6DC"/>
</svg>
