<svg width="42" height="42" viewBox="0 0 42 42" fill="none" xmlns="http://www.w3.org/2000/svg">
<circle cx="21" cy="21" r="21" fill="#434343"/>
<g clip-path="url(#clip0_1213_2150)">
<path d="M26.4998 13.6667H15.4998C14.4873 13.6667 13.6665 14.4876 13.6665 15.5001V26.5001C13.6665 27.5126 14.4873 28.3334 15.4998 28.3334H26.4998C27.5124 28.3334 28.3332 27.5126 28.3332 26.5001V15.5001C28.3332 14.4876 27.5124 13.6667 26.4998 13.6667Z" stroke="white" stroke-width="2" stroke-linecap="round" stroke-linejoin="round"/>
<path d="M23.75 18.25H18.25V23.75H23.75V18.25Z" stroke="white" stroke-width="2" stroke-linecap="round" stroke-linejoin="round"/>
<path d="M18.25 10.9167V13.6667" stroke="white" stroke-width="2" stroke-linecap="round" stroke-linejoin="round"/>
<path d="M23.75 10.9167V13.6667" stroke="white" stroke-width="2" stroke-linecap="round" stroke-linejoin="round"/>
<path d="M18.25 28.3333V31.0833" stroke="white" stroke-width="2" stroke-linecap="round" stroke-linejoin="round"/>
<path d="M23.75 28.3333V31.0833" stroke="white" stroke-width="2" stroke-linecap="round" stroke-linejoin="round"/>
<path d="M28.3335 18.25H31.0835" stroke="white" stroke-width="2" stroke-linecap="round" stroke-linejoin="round"/>
<path d="M28.3335 22.8333H31.0835" stroke="white" stroke-width="2" stroke-linecap="round" stroke-linejoin="round"/>
<path d="M10.9165 18.25H13.6665" stroke="white" stroke-width="2" stroke-linecap="round" stroke-linejoin="round"/>
<path d="M10.9165 22.8333H13.6665" stroke="white" stroke-width="2" stroke-linecap="round" stroke-linejoin="round"/>
</g>
<defs>
<clipPath id="clip0_1213_2150">
<rect width="22" height="22" fill="white" transform="translate(10 10)"/>
</clipPath>
</defs>
</svg>
