<svg width="20" height="20" viewBox="0 0 20 20" fill="none" xmlns="http://www.w3.org/2000/svg">
<path d="M4.16683 11.6666C3.93072 11.6666 3.7328 11.5867 3.57308 11.427C3.41336 11.2673 3.3335 11.0694 3.3335 10.8333C3.3335 10.5971 3.41336 10.3992 3.57308 10.2395C3.7328 10.0798 3.93072 9.99992 4.16683 9.99992H8.3335C8.56961 9.99992 8.76752 10.0798 8.92725 10.2395C9.08697 10.3992 9.16683 10.5971 9.16683 10.8333C9.16683 11.0694 9.08697 11.2673 8.92725 11.427C8.76752 11.5867 8.56961 11.6666 8.3335 11.6666H4.16683ZM4.16683 8.33325C3.93072 8.33325 3.7328 8.25339 3.57308 8.09367C3.41336 7.93395 3.3335 7.73603 3.3335 7.49992C3.3335 7.26381 3.41336 7.06589 3.57308 6.90617C3.7328 6.74645 3.93072 6.66658 4.16683 6.66658H11.6668C11.9029 6.66658 12.1009 6.74645 12.2606 6.90617C12.4203 7.06589 12.5002 7.26381 12.5002 7.49992C12.5002 7.73603 12.4203 7.93395 12.2606 8.09367C12.1009 8.25339 11.9029 8.33325 11.6668 8.33325H4.16683ZM4.16683 4.99992C3.93072 4.99992 3.7328 4.92006 3.57308 4.76034C3.41336 4.60061 3.3335 4.4027 3.3335 4.16659C3.3335 3.93047 3.41336 3.73256 3.57308 3.57284C3.7328 3.41311 3.93072 3.33325 4.16683 3.33325H11.6668C11.9029 3.33325 12.1009 3.41311 12.2606 3.57284C12.4203 3.73256 12.5002 3.93047 12.5002 4.16659C12.5002 4.4027 12.4203 4.60061 12.2606 4.76034C12.1009 4.92006 11.9029 4.99992 11.6668 4.99992H4.16683ZM10.8335 15.8333V14.4583C10.8335 14.3471 10.8543 14.2395 10.896 14.1353C10.9377 14.0312 11.0002 13.9374 11.0835 13.8541L15.4377 9.52075C15.5627 9.39575 15.7016 9.30547 15.8543 9.24992C16.0071 9.19436 16.1599 9.16658 16.3127 9.16658C16.4793 9.16658 16.6391 9.19783 16.7918 9.26033C16.9446 9.32283 17.0835 9.41658 17.2085 9.54158L17.9793 10.3124C18.0904 10.4374 18.1772 10.5763 18.2397 10.7291C18.3022 10.8819 18.3335 11.0346 18.3335 11.1874C18.3335 11.3402 18.3057 11.4964 18.2502 11.6562C18.1946 11.8159 18.1043 11.9583 17.9793 12.0833L13.646 16.4166C13.5627 16.4999 13.4689 16.5624 13.3647 16.6041C13.2606 16.6458 13.1529 16.6666 13.0418 16.6666H11.6668C11.4307 16.6666 11.2328 16.5867 11.0731 16.427C10.9134 16.2673 10.8335 16.0694 10.8335 15.8333ZM12.0835 15.4166H12.8752L15.396 12.8749L15.021 12.4791L14.6252 12.1041L12.0835 14.6249V15.4166ZM15.021 12.4791L14.6252 12.1041L15.396 12.8749L15.021 12.4791Z" fill="#D2D6DC"/>
</svg>
