<svg width="25" height="24" viewBox="0 0 25 24" fill="none" xmlns="http://www.w3.org/2000/svg">
<path d="M12.833 5C12.5497 5 12.3122 4.90417 12.1205 4.7125C11.9288 4.52083 11.833 4.28333 11.833 4V2C11.833 1.71667 11.9288 1.47917 12.1205 1.2875C12.3122 1.09583 12.5497 1 12.833 1C13.1163 1 13.3538 1.09583 13.5455 1.2875C13.7372 1.47917 13.833 1.71667 13.833 2V4C13.833 4.28333 13.7372 4.52083 13.5455 4.7125C13.3538 4.90417 13.1163 5 12.833 5ZM17.783 7.05C17.5997 6.86667 17.508 6.6375 17.508 6.3625C17.508 6.0875 17.5997 5.85 17.783 5.65L19.183 4.225C19.383 4.025 19.6205 3.925 19.8955 3.925C20.1705 3.925 20.408 4.025 20.608 4.225C20.7913 4.40833 20.883 4.64167 20.883 4.925C20.883 5.20833 20.7913 5.44167 20.608 5.625L19.183 7.05C18.9997 7.23333 18.7663 7.325 18.483 7.325C18.1997 7.325 17.9663 7.23333 17.783 7.05ZM20.833 13C20.5497 13 20.3122 12.9042 20.1205 12.7125C19.9288 12.5208 19.833 12.2833 19.833 12C19.833 11.7167 19.9288 11.4792 20.1205 11.2875C20.3122 11.0958 20.5497 11 20.833 11H22.833C23.1163 11 23.3538 11.0958 23.5455 11.2875C23.7372 11.4792 23.833 11.7167 23.833 12C23.833 12.2833 23.7372 12.5208 23.5455 12.7125C23.3538 12.9042 23.1163 13 22.833 13H20.833ZM12.833 23C12.5497 23 12.3122 22.9042 12.1205 22.7125C11.9288 22.5208 11.833 22.2833 11.833 22V20C11.833 19.7167 11.9288 19.4792 12.1205 19.2875C12.3122 19.0958 12.5497 19 12.833 19C13.1163 19 13.3538 19.0958 13.5455 19.2875C13.7372 19.4792 13.833 19.7167 13.833 20V22C13.833 22.2833 13.7372 22.5208 13.5455 22.7125C13.3538 22.9042 13.1163 23 12.833 23ZM6.48301 7.05L5.05801 5.65C4.85801 5.45 4.75801 5.20833 4.75801 4.925C4.75801 4.64167 4.85801 4.40833 5.05801 4.225C5.24134 4.04167 5.47467 3.95 5.75801 3.95C6.04134 3.95 6.27467 4.04167 6.45801 4.225L7.88301 5.65C8.06634 5.83333 8.15801 6.06667 8.15801 6.35C8.15801 6.63333 8.06634 6.86667 7.88301 7.05C7.68301 7.23333 7.44967 7.325 7.18301 7.325C6.91634 7.325 6.68301 7.23333 6.48301 7.05ZM19.183 19.775L17.783 18.35C17.5997 18.15 17.508 17.9125 17.508 17.6375C17.508 17.3625 17.5997 17.1333 17.783 16.95C17.9663 16.7667 18.1955 16.675 18.4705 16.675C18.7455 16.675 18.983 16.7667 19.183 16.95L20.608 18.35C20.808 18.5333 20.9038 18.7667 20.8955 19.05C20.8872 19.3333 20.7913 19.575 20.608 19.775C20.408 19.975 20.1663 20.075 19.883 20.075C19.5997 20.075 19.3663 19.975 19.183 19.775ZM2.83301 13C2.54967 13 2.31217 12.9042 2.12051 12.7125C1.92884 12.5208 1.83301 12.2833 1.83301 12C1.83301 11.7167 1.92884 11.4792 2.12051 11.2875C2.31217 11.0958 2.54967 11 2.83301 11H4.83301C5.11634 11 5.35384 11.0958 5.54551 11.2875C5.73717 11.4792 5.83301 11.7167 5.83301 12C5.83301 12.2833 5.73717 12.5208 5.54551 12.7125C5.35384 12.9042 5.11634 13 4.83301 13H2.83301ZM5.05801 19.775C4.87467 19.5917 4.78301 19.3583 4.78301 19.075C4.78301 18.7917 4.87467 18.5583 5.05801 18.375L6.48301 16.95C6.66634 16.7667 6.89551 16.675 7.17051 16.675C7.44551 16.675 7.68301 16.7667 7.88301 16.95C8.08301 17.15 8.18301 17.3875 8.18301 17.6625C8.18301 17.9375 8.08301 18.175 7.88301 18.375L6.48301 19.775C6.28301 19.975 6.04134 20.075 5.75801 20.075C5.47467 20.075 5.24134 19.975 5.05801 19.775ZM12.833 18C11.1663 18 9.74967 17.4167 8.58301 16.25C7.41634 15.0833 6.83301 13.6667 6.83301 12C6.83301 10.3333 7.41634 8.91667 8.58301 7.75C9.74967 6.58333 11.1663 6 12.833 6C14.4997 6 15.9163 6.58333 17.083 7.75C18.2497 8.91667 18.833 10.3333 18.833 12C18.833 13.6667 18.2497 15.0833 17.083 16.25C15.9163 17.4167 14.4997 18 12.833 18ZM12.833 16C13.933 16 14.8747 15.6083 15.658 14.825C16.4413 14.0417 16.833 13.1 16.833 12C16.833 10.9 16.4413 9.95833 15.658 9.175C14.8747 8.39167 13.933 8 12.833 8C11.733 8 10.7913 8.39167 10.008 9.175C9.22467 9.95833 8.83301 10.9 8.83301 12C8.83301 13.1 9.22467 14.0417 10.008 14.825C10.7913 15.6083 11.733 16 12.833 16Z" fill="#63676F"/>
</svg>
