<svg width="20" height="21" viewBox="0 0 20 21" fill="none" xmlns="http://www.w3.org/2000/svg">
<path d="M12.0833 15.4999C12.4305 15.4999 12.7256 15.3784 12.9687 15.1353C13.2117 14.8923 13.3333 14.5971 13.3333 14.2499C13.3333 13.9027 13.2117 13.6076 12.9687 13.3645C12.7256 13.1214 12.4305 12.9999 12.0833 12.9999C11.736 12.9999 11.4409 13.1214 11.1978 13.3645C10.9548 13.6076 10.8333 13.9027 10.8333 14.2499C10.8333 14.5971 10.9548 14.8923 11.1978 15.1353C11.4409 15.3784 11.736 15.4999 12.0833 15.4999ZM7.29158 14.8749C7.45825 15.0416 7.6527 15.1249 7.87492 15.1249C8.09714 15.1249 8.29158 15.0416 8.45825 14.8749L12.7083 10.6249C12.8749 10.4583 12.9583 10.2638 12.9583 10.0416C12.9583 9.81936 12.8749 9.62492 12.7083 9.45825C12.5416 9.29159 12.3437 9.20825 12.1145 9.20825C11.8853 9.20825 11.6874 9.29159 11.5208 9.45825L7.29158 13.6874C7.12492 13.8541 7.04158 14.052 7.04158 14.2812C7.04158 14.5103 7.12492 14.7083 7.29158 14.8749ZM7.91658 11.3333C8.26381 11.3333 8.55895 11.2117 8.802 10.9687C9.04506 10.7256 9.16658 10.4305 9.16658 10.0833C9.16658 9.73603 9.04506 9.44089 8.802 9.19784C8.55895 8.95478 8.26381 8.83325 7.91658 8.83325C7.56936 8.83325 7.27422 8.95478 7.03117 9.19784C6.78811 9.44089 6.66658 9.73603 6.66658 10.0833C6.66658 10.4305 6.78811 10.7256 7.03117 10.9687C7.27422 11.2117 7.56936 11.3333 7.91658 11.3333ZM9.99992 18.8333C8.09714 18.8333 6.51034 18.1805 5.2395 16.8749C3.96867 15.5694 3.33325 13.9444 3.33325 11.9999C3.33325 11.1388 3.5277 10.2777 3.91659 9.41659C4.30547 8.55547 4.79159 7.72909 5.37492 6.93742C5.95825 6.14575 6.5902 5.4027 7.27075 4.70825C7.95131 4.01381 8.58325 3.40964 9.16658 2.89575C9.2777 2.78464 9.40617 2.70478 9.552 2.65617C9.69783 2.60756 9.84714 2.58325 9.99992 2.58325C10.1527 2.58325 10.302 2.60756 10.4478 2.65617C10.5937 2.70478 10.7221 2.78464 10.8333 2.89575C11.4166 3.40964 12.0485 4.01381 12.7291 4.70825C13.4096 5.4027 14.0416 6.14575 14.6249 6.93742C15.2083 7.72909 15.6944 8.55547 16.0833 9.41659C16.4721 10.2777 16.6666 11.1388 16.6666 11.9999C16.6666 13.9444 16.0312 15.5694 14.7603 16.8749C13.4895 18.1805 11.9027 18.8333 9.99992 18.8333ZM9.99992 17.1666C11.4444 17.1666 12.6388 16.677 13.5833 15.6978C14.5277 14.7187 14.9999 13.486 14.9999 11.9999C14.9999 10.986 14.5798 9.8402 13.7395 8.56242C12.8992 7.28464 11.6527 5.88881 9.99992 4.37492C8.34714 5.88881 7.10061 7.28464 6.26034 8.56242C5.42006 9.8402 4.99992 10.986 4.99992 11.9999C4.99992 13.486 5.47214 14.7187 6.41659 15.6978C7.36103 16.677 8.55547 17.1666 9.99992 17.1666Z" fill="#B2B2B2"/>
</svg>
