     <svg width="28" height="29" viewBox="0 0 28 29" fill="none" xmlns="http://www.w3.org/2000/svg">
          <path d="M16.5377 25.9041C16.1877 25.9819 15.8814 25.909 15.6189 25.6854C15.3564 25.4618 15.2252 25.1555 15.2252 24.7666C15.2252 24.4944 15.3176 24.2465 15.5023 24.0229C15.687 23.7993 15.9155 23.6486 16.1877 23.5708C16.6738 23.4541 17.1453 23.3034 17.6023 23.1187C18.0592 22.934 18.5016 22.7055 18.9294 22.4333C19.1821 22.2777 19.4592 22.2145 19.7606 22.2437C20.062 22.2729 20.3099 22.3847 20.5044 22.5791C20.7766 22.8513 20.8981 23.1625 20.8689 23.5125C20.8398 23.8624 20.6696 24.1347 20.3585 24.3291C19.7558 24.718 19.1384 25.0388 18.5064 25.2916C17.8745 25.5444 17.2183 25.7486 16.5377 25.9041ZM22.1669 20.9166C21.9724 20.7222 21.8606 20.4791 21.8314 20.1875C21.8023 19.8958 21.8655 19.6333 22.021 19.4C22.2738 18.9722 22.4974 18.5347 22.6919 18.0875C22.8863 17.6402 23.0419 17.1638 23.1585 16.6583C23.2363 16.3861 23.3919 16.1527 23.6252 15.9583C23.8585 15.7638 24.1113 15.6666 24.3835 15.6666C24.7724 15.6666 25.0787 15.8027 25.3023 16.0749C25.5259 16.3472 25.5891 16.6583 25.4919 17.0083C25.3363 17.7083 25.1273 18.3743 24.8648 19.0062C24.6023 19.6381 24.2766 20.2361 23.8877 20.7999C23.6933 21.0916 23.4259 21.252 23.0856 21.2812C22.7453 21.3104 22.4391 21.1888 22.1669 20.9166ZM24.3544 13.3333C24.0821 13.3333 23.8342 13.2361 23.6106 13.0416C23.387 12.8472 23.2363 12.6138 23.1585 12.3416C23.0419 11.8361 22.8863 11.3548 22.6919 10.8979C22.4974 10.4409 22.2738 10.0083 22.021 9.59995C21.8655 9.36662 21.8023 9.10412 21.8314 8.81245C21.8606 8.52078 21.9724 8.27773 22.1669 8.08328C22.4391 7.81106 22.7453 7.68467 23.0856 7.70411C23.4259 7.72356 23.6933 7.87912 23.8877 8.17078C24.2766 8.73467 24.6071 9.34231 24.8794 9.9937C25.1516 10.6451 25.3655 11.3111 25.521 11.9916C25.5988 12.3416 25.521 12.6527 25.2877 12.9249C25.0544 13.1972 24.7433 13.3333 24.3544 13.3333ZM11.6085 25.875C8.94464 25.2527 6.75228 23.8916 5.03145 21.7916C3.31061 19.6916 2.4502 17.2611 2.4502 14.4999C2.4502 11.7194 3.30575 9.26939 5.01686 7.14995C6.72797 5.0305 8.91547 3.67911 11.5794 3.09578C11.9294 3.018 12.2356 3.09092 12.4981 3.31453C12.7606 3.53814 12.8919 3.83467 12.8919 4.20411C12.8919 4.47634 12.7995 4.72425 12.6148 4.94786C12.4301 5.17148 12.2016 5.32217 11.9294 5.39995C9.84881 5.9055 8.1377 7.00411 6.79603 8.69578C5.45436 10.3874 4.78353 12.3222 4.78353 14.4999C4.78353 16.6777 5.45436 18.5979 6.79603 20.2604C8.1377 21.9229 9.84881 23.0263 11.9294 23.5708C12.2016 23.6486 12.4301 23.8041 12.6148 24.0375C12.7995 24.2708 12.8919 24.5236 12.8919 24.7958C12.8919 25.1652 12.7655 25.4569 12.5127 25.6708C12.2599 25.8847 11.9585 25.9527 11.6085 25.875ZM19.0169 6.59578C18.5696 6.32356 18.1127 6.08536 17.646 5.8812C17.1794 5.67703 16.703 5.51661 16.2169 5.39995C15.9446 5.32217 15.7113 5.17148 15.5169 4.94786C15.3224 4.72425 15.2252 4.47634 15.2252 4.20411C15.2252 3.83467 15.3564 3.53814 15.6189 3.31453C15.8814 3.09092 16.1877 3.018 16.5377 3.09578C17.2183 3.25134 17.8794 3.4555 18.521 3.70828C19.1627 3.96106 19.7849 4.28189 20.3877 4.67078C20.6988 4.86523 20.8689 5.13745 20.8981 5.48745C20.9273 5.83745 20.8058 6.14856 20.5335 6.42078C20.3391 6.61523 20.1009 6.73189 19.8189 6.77078C19.537 6.80967 19.2696 6.75134 19.0169 6.59578ZM14.0877 19.9249C13.9321 19.9249 13.7814 19.9006 13.6356 19.852C13.4898 19.8034 13.3683 19.7305 13.271 19.6333C11.9877 18.4472 11.0252 17.3388 10.3835 16.3083C9.74186 15.2777 9.42103 14.3249 9.42103 13.4499C9.42103 12.0888 9.86339 10.9513 10.7481 10.0374C11.6328 9.12356 12.746 8.66662 14.0877 8.66662C15.4294 8.66662 16.5426 9.12356 17.4273 10.0374C18.312 10.9513 18.7544 12.0888 18.7544 13.4499C18.7544 14.3249 18.4335 15.2777 17.7919 16.3083C17.1502 17.3388 16.1877 18.4472 14.9044 19.6333C14.8071 19.7305 14.6856 19.8034 14.5398 19.852C14.3939 19.9006 14.2433 19.9249 14.0877 19.9249ZM14.0877 14.4999C14.4377 14.4999 14.7342 14.3784 14.9773 14.1354C15.2203 13.8923 15.3419 13.5958 15.3419 13.2458C15.3419 12.8958 15.2203 12.5993 14.9773 12.3562C14.7342 12.1131 14.4377 11.9916 14.0877 11.9916C13.7377 11.9916 13.4412 12.1131 13.1981 12.3562C12.9551 12.5993 12.8335 12.8958 12.8335 13.2458C12.8335 13.5958 12.9551 13.8923 13.1981 14.1354C13.4412 14.3784 13.7377 14.4999 14.0877 14.4999Z" fill="#E8EAED"/>
          </svg>