<svg width="25" height="24" viewBox="0 0 25 24" fill="none" xmlns="http://www.w3.org/2000/svg">
<path d="M5.97197 20.6032C5.39731 20.6032 4.90781 20.4011 4.50347 19.9967C4.09914 19.5924 3.89697 19.1029 3.89697 18.5282V5.47173C3.89697 4.89706 4.09914 4.40756 4.50347 4.00323C4.90781 3.5989 5.39731 3.39673 5.97197 3.39673H11.5105C11.8015 3.39673 12.0471 3.4964 12.2475 3.69573C12.4478 3.89523 12.548 4.13964 12.548 4.42898C12.548 4.71831 12.4478 4.96448 12.2475 5.16748C12.0471 5.37031 11.8015 5.47173 11.5105 5.47173H5.97197V18.5282H11.5105C11.8015 18.5282 12.0471 18.6279 12.2475 18.8272C12.4478 19.0267 12.548 19.2711 12.548 19.5605C12.548 19.8498 12.4478 20.096 12.2475 20.299C12.0471 20.5018 11.8015 20.6032 11.5105 20.6032H5.97197ZM17.1392 13.0375H11.089C10.7983 13.0375 10.5529 12.9378 10.3527 12.7385C10.1526 12.539 10.0525 12.2946 10.0525 12.0052C10.0525 11.7159 10.1526 11.4697 10.3527 11.2667C10.5529 11.0639 10.7983 10.9625 11.089 10.9625H17.1392L15.877 9.69998C15.6656 9.48881 15.56 9.24181 15.56 8.95898C15.56 8.67631 15.6656 8.43198 15.877 8.22598C16.0881 8.01581 16.3315 7.91173 16.607 7.91373C16.8825 7.91573 17.1259 8.02239 17.3372 8.23373L20.3827 11.2792C20.5901 11.4844 20.6937 11.7231 20.6937 11.9955C20.6937 12.2676 20.5901 12.5094 20.3827 12.7207L17.3372 15.7662C17.1299 15.9776 16.8906 16.0801 16.6195 16.0737C16.3483 16.0674 16.1051 15.9586 15.89 15.7472C15.6866 15.5401 15.584 15.2966 15.582 15.017C15.58 14.7375 15.6846 14.4921 15.896 14.281L17.1392 13.0375Z" fill="#C25555"/>
</svg>
