<svg width="21" height="20" viewBox="0 0 21 20" fill="none" xmlns="http://www.w3.org/2000/svg">
<path d="M9.37484 13.1251L13.4373 10.5209C13.6318 10.3959 13.729 10.2223 13.729 10.0001C13.729 9.77786 13.6318 9.60425 13.4373 9.47925L9.37484 6.87508C9.1665 6.73619 8.9547 6.72578 8.73942 6.84383C8.52414 6.96189 8.4165 7.14591 8.4165 7.39591V12.6042C8.4165 12.8542 8.52414 13.0383 8.73942 13.1563C8.9547 13.2744 9.1665 13.264 9.37484 13.1251ZM10.4998 18.3334C9.34706 18.3334 8.26373 18.1147 7.24984 17.6772C6.23595 17.2397 5.354 16.6459 4.604 15.8959C3.854 15.1459 3.26025 14.264 2.82275 13.2501C2.38525 12.2362 2.1665 11.1529 2.1665 10.0001C2.1665 8.8473 2.38525 7.76397 2.82275 6.75008C3.26025 5.73619 3.854 4.85425 4.604 4.10425C5.354 3.35425 6.23595 2.7605 7.24984 2.323C8.26373 1.8855 9.34706 1.66675 10.4998 1.66675C11.6526 1.66675 12.7359 1.8855 13.7498 2.323C14.7637 2.7605 15.6457 3.35425 16.3957 4.10425C17.1457 4.85425 17.7394 5.73619 18.1769 6.75008C18.6144 7.76397 18.8332 8.8473 18.8332 10.0001C18.8332 11.1529 18.6144 12.2362 18.1769 13.2501C17.7394 14.264 17.1457 15.1459 16.3957 15.8959C15.6457 16.6459 14.7637 17.2397 13.7498 17.6772C12.7359 18.1147 11.6526 18.3334 10.4998 18.3334ZM10.4998 16.6667C12.3609 16.6667 13.9373 16.0209 15.229 14.7292C16.5207 13.4376 17.1665 11.8612 17.1665 10.0001C17.1665 8.13897 16.5207 6.56258 15.229 5.27091C13.9373 3.97925 12.3609 3.33341 10.4998 3.33341C8.63873 3.33341 7.06234 3.97925 5.77067 5.27091C4.479 6.56258 3.83317 8.13897 3.83317 10.0001C3.83317 11.8612 4.479 13.4376 5.77067 14.7292C7.06234 16.0209 8.63873 16.6667 10.4998 16.6667Z" fill="#75B43C"/>
</svg>
