<svg width="25" height="17" viewBox="0 0 25 17" fill="none" xmlns="http://www.w3.org/2000/svg">
<path d="M11.3445 9.22465L10.1694 8.04954C9.94739 7.82757 9.6732 7.71659 9.34677 7.71659C9.02035 7.71659 8.74616 7.82757 8.52419 8.04954C8.30223 8.27151 8.19451 8.5457 8.20104 8.87212C8.20757 9.19854 8.32181 9.47273 8.54378 9.6947L10.4631 11.6141C10.7159 11.8621 11.0109 11.9862 11.348 11.9862C11.6851 11.9862 11.9777 11.8621 12.2258 11.6141L16.3583 7.48157C16.5803 7.2596 16.6912 6.98867 16.6912 6.66878C16.6912 6.34889 16.5803 6.07796 16.3583 5.85599C16.1363 5.63402 15.8621 5.52304 15.5357 5.52304C15.2093 5.52304 14.9351 5.63402 14.7131 5.85599L11.3445 9.22465ZM12.5 17C11.3118 17 10.2021 16.7775 9.1707 16.3325C8.13947 15.8874 7.2424 15.2834 6.47949 14.5205C5.71658 13.7576 5.11257 12.8605 4.66747 11.8293C4.22249 10.7979 4 9.68817 4 8.5C4 7.31183 4.22249 6.20206 4.66747 5.1707C5.11257 4.13947 5.71658 3.2424 6.47949 2.47949C7.2424 1.71658 8.13947 1.11257 9.1707 0.667466C10.2021 0.222489 11.3118 0 12.5 0C13.6882 0 14.7979 0.222489 15.8293 0.667466C16.8605 1.11257 17.7576 1.71658 18.5205 2.47949C19.2834 3.2424 19.8874 4.13947 20.3325 5.1707C20.7775 6.20206 21 7.31183 21 8.5C21 9.68817 20.7775 10.7979 20.3325 11.8293C19.8874 12.8605 19.2834 13.7576 18.5205 14.5205C17.7576 15.2834 16.8605 15.8874 15.8293 16.3325C14.7979 16.7775 13.6882 17 12.5 17Z" fill="url(#paint0_linear_1211_1010)"/>
<defs>
<linearGradient id="paint0_linear_1211_1010" x1="12.5" y1="0" x2="12.5" y2="17" gradientUnits="userSpaceOnUse">
<stop stop-color="#88C057"/>
<stop offset="1" stop-color="#1C9B38"/>
</linearGradient>
</defs>
</svg>
