<svg width="28" height="29" viewBox="0 0 28 29" fill="none" xmlns="http://www.w3.org/2000/svg">
          <path d="M12.6294 26.1666C12.1044 26.1666 11.6523 25.9916 11.2731 25.6416C10.894 25.2916 10.6655 24.8638 10.5877 24.3583L10.3252 22.4333C10.0724 22.336 9.83425 22.2194 9.61064 22.0833C9.38703 21.9471 9.16828 21.8013 8.95439 21.6458L7.14605 22.4041C6.65994 22.618 6.17383 22.6374 5.68772 22.4624C5.20161 22.2874 4.82244 21.9763 4.55022 21.5291L3.17939 19.1374C2.90717 18.6902 2.82939 18.2138 2.94605 17.7083C3.06272 17.2027 3.32522 16.7846 3.73355 16.4541L5.27939 15.2874C5.25994 15.1513 5.25022 15.0201 5.25022 14.8937V14.1062C5.25022 13.9798 5.25994 13.8485 5.27939 13.7124L3.73355 12.5458C3.32522 12.2152 3.06272 11.7971 2.94605 11.2916C2.82939 10.786 2.90717 10.3096 3.17939 9.86242L4.55022 7.47075C4.82244 7.02353 5.20161 6.71242 5.68772 6.53742C6.17383 6.36242 6.65994 6.38186 7.14605 6.59575L8.95439 7.35408C9.16828 7.19853 9.39189 7.0527 9.62522 6.91658C9.85855 6.78047 10.0919 6.66381 10.3252 6.56659L10.5877 4.64159C10.6655 4.13603 10.894 3.70825 11.2731 3.35825C11.6523 3.00825 12.1044 2.83325 12.6294 2.83325H15.3711C15.8961 2.83325 16.3481 3.00825 16.7273 3.35825C17.1065 3.70825 17.3349 4.13603 17.4127 4.64159L17.6752 6.56659C17.928 6.66381 18.1662 6.78047 18.3898 6.91658C18.6134 7.0527 18.8322 7.19853 19.0461 7.35408L20.8544 6.59575C21.3405 6.38186 21.8266 6.36242 22.3127 6.53742C22.7988 6.71242 23.178 7.02353 23.4502 7.47075L24.8211 9.86242C25.0933 10.3096 25.1711 10.786 25.0544 11.2916C24.9377 11.7971 24.6752 12.2152 24.2669 12.5458L22.7211 13.7124C22.7405 13.8485 22.7502 13.9798 22.7502 14.1062V14.8937C22.7502 15.0201 22.7308 15.1513 22.6919 15.2874L24.2377 16.4541C24.6461 16.7846 24.9086 17.2027 25.0252 17.7083C25.1419 18.2138 25.0641 18.6902 24.7919 19.1374L23.3919 21.5291C23.1197 21.9763 22.7405 22.2874 22.2544 22.4624C21.7683 22.6374 21.2822 22.618 20.7961 22.4041L19.0461 21.6458C18.8322 21.8013 18.6086 21.9471 18.3752 22.0833C18.1419 22.2194 17.9086 22.336 17.6752 22.4333L17.4127 24.3583C17.3349 24.8638 17.1065 25.2916 16.7273 25.6416C16.3481 25.9916 15.8961 26.1666 15.3711 26.1666H12.6294ZM12.8336 23.8333H15.1377L15.5461 20.7416C16.1488 20.586 16.7079 20.3576 17.2231 20.0562C17.7384 19.7548 18.2099 19.3902 18.6377 18.9624L21.5252 20.1583L22.6627 18.1749L20.1544 16.2791C20.2516 16.0069 20.3197 15.7201 20.3586 15.4187C20.3974 15.1173 20.4169 14.811 20.4169 14.4999C20.4169 14.1888 20.3974 13.8826 20.3586 13.5812C20.3197 13.2798 20.2516 12.993 20.1544 12.7208L22.6627 10.8249L21.5252 8.84159L18.6377 10.0666C18.2099 9.61936 17.7384 9.24506 17.2231 8.94367C16.7079 8.64228 16.1488 8.41381 15.5461 8.25825L15.1669 5.16659H12.8627L12.4544 8.25825C11.8516 8.41381 11.2926 8.64228 10.7773 8.94367C10.262 9.24506 9.7905 9.60964 9.36272 10.0374L6.47522 8.84159L5.33772 10.8249L7.84606 12.6916C7.74883 12.9833 7.68078 13.2749 7.64189 13.5666C7.603 13.8583 7.58355 14.1694 7.58355 14.4999C7.58355 14.811 7.603 15.1124 7.64189 15.4041C7.68078 15.6958 7.74883 15.9874 7.84606 16.2791L5.33772 18.1749L6.47522 20.1583L9.36272 18.9333C9.7905 19.3805 10.262 19.7548 10.7773 20.0562C11.2926 20.3576 11.8516 20.586 12.4544 20.7416L12.8336 23.8333ZM14.0586 18.5833C15.1863 18.5833 16.1488 18.1846 16.9461 17.3874C17.7433 16.5902 18.1419 15.6277 18.1419 14.4999C18.1419 13.3721 17.7433 12.4096 16.9461 11.6124C16.1488 10.8152 15.1863 10.4166 14.0586 10.4166C12.9113 10.4166 11.944 10.8152 11.1565 11.6124C10.369 12.4096 9.97522 13.3721 9.97522 14.4999C9.97522 15.6277 10.369 16.5902 11.1565 17.3874C11.944 18.1846 12.9113 18.5833 14.0586 18.5833Z" fill="white"/>
          </svg>
