<svg width="20" height="20" viewBox="0 0 20 20" fill="none" xmlns="http://www.w3.org/2000/svg">
<path d="M7.49984 13.3334H12.4998C12.7359 13.3334 12.9339 13.2536 13.0936 13.0938C13.2533 12.9341 13.3332 12.7362 13.3332 12.5001V7.50008C13.3332 7.26397 13.2533 7.06605 13.0936 6.90633C12.9339 6.74661 12.7359 6.66675 12.4998 6.66675H7.49984C7.26373 6.66675 7.06581 6.74661 6.90609 6.90633C6.74636 7.06605 6.6665 7.26397 6.6665 7.50008V12.5001C6.6665 12.7362 6.74636 12.9341 6.90609 13.0938C7.06581 13.2536 7.26373 13.3334 7.49984 13.3334ZM9.99984 18.3334C8.84706 18.3334 7.76373 18.1147 6.74984 17.6772C5.73595 17.2397 4.854 16.6459 4.104 15.8959C3.354 15.1459 2.76025 14.264 2.32275 13.2501C1.88525 12.2362 1.6665 11.1529 1.6665 10.0001C1.6665 8.8473 1.88525 7.76397 2.32275 6.75008C2.76025 5.73619 3.354 4.85425 4.104 4.10425C4.854 3.35425 5.73595 2.7605 6.74984 2.323C7.76373 1.8855 8.84706 1.66675 9.99984 1.66675C11.1526 1.66675 12.2359 1.8855 13.2498 2.323C14.2637 2.7605 15.1457 3.35425 15.8957 4.10425C16.6457 4.85425 17.2394 5.73619 17.6769 6.75008C18.1144 7.76397 18.3332 8.8473 18.3332 10.0001C18.3332 11.1529 18.1144 12.2362 17.6769 13.2501C17.2394 14.264 16.6457 15.1459 15.8957 15.8959C15.1457 16.6459 14.2637 17.2397 13.2498 17.6772C12.2359 18.1147 11.1526 18.3334 9.99984 18.3334ZM9.99984 16.6667C11.8609 16.6667 13.4373 16.0209 14.729 14.7292C16.0207 13.4376 16.6665 11.8612 16.6665 10.0001C16.6665 8.13897 16.0207 6.56258 14.729 5.27091C13.4373 3.97925 11.8609 3.33341 9.99984 3.33341C8.13873 3.33341 6.56234 3.97925 5.27067 5.27091C3.979 6.56258 3.33317 8.13897 3.33317 10.0001C3.33317 11.8612 3.979 13.4376 5.27067 14.7292C6.56234 16.0209 8.13873 16.6667 9.99984 16.6667Z" fill="#C25555"/>
</svg>
