<svg width="10" height="17" viewBox="0 0 10 17" fill="none" xmlns="http://www.w3.org/2000/svg">
<path d="M4.99992 16.8334C3.84714 16.8334 2.8645 16.4272 2.052 15.6147C1.2395 14.8022 0.833252 13.8195 0.833252 12.6667C0.833252 12.0001 0.979085 11.3786 1.27075 10.8022C1.56242 10.2258 1.97214 9.73619 2.49992 9.33341V2.66675C2.49992 1.9723 2.74297 1.38203 3.22909 0.895915C3.7152 0.409804 4.30547 0.166748 4.99992 0.166748C5.69436 0.166748 6.28464 0.409804 6.77075 0.895915C7.25686 1.38203 7.49992 1.9723 7.49992 2.66675V9.33341C8.0277 9.73619 8.43742 10.2258 8.72908 10.8022C9.02075 11.3786 9.16658 12.0001 9.16658 12.6667C9.16658 13.8195 8.76033 14.8022 7.94783 15.6147C7.13533 16.4272 6.1527 16.8334 4.99992 16.8334ZM4.16658 7.66675H5.83325V6.83341H4.99992V6.00008H5.83325V4.33341H4.99992V3.50008H5.83325V2.66675C5.83325 2.43064 5.75339 2.23272 5.59367 2.073C5.43395 1.91328 5.23603 1.83341 4.99992 1.83341C4.76381 1.83341 4.56589 1.91328 4.40617 2.073C4.24645 2.23272 4.16658 2.43064 4.16658 2.66675V7.66675Z" fill="#B2B2B2"/>
</svg>
