<svg width="22" height="22" viewBox="0 0 22 22" fill="none" xmlns="http://www.w3.org/2000/svg">
<g clip-path="url(#clip0_1213_2236)">
<path d="M12.8332 13.5301V3.20841C12.8332 2.60063 12.5917 2.01773 12.162 1.58796C11.7322 1.15819 11.1493 0.916748 10.5415 0.916748C9.93372 0.916748 9.35082 1.15819 8.92105 1.58796C8.49128 2.01773 8.24984 2.60063 8.24984 3.20841V13.5301C7.51401 14.0217 6.9558 14.737 6.65765 15.5702C6.35951 16.4034 6.33723 17.3105 6.59411 18.1573C6.851 19.0042 7.37342 19.746 8.08423 20.2732C8.79504 20.8003 9.65654 21.0849 10.5415 21.0849C11.4265 21.0849 12.288 20.8003 12.9988 20.2732C13.7096 19.746 14.232 19.0042 14.4889 18.1573C14.7458 17.3105 14.7235 16.4034 14.4254 15.5702C14.1272 14.737 13.569 14.0217 12.8332 13.5301Z" stroke="white" stroke-width="2" stroke-linecap="round" stroke-linejoin="round"/>
</g>
<defs>
<clipPath id="clip0_1213_2236">
<rect width="22" height="22" fill="white"/>
</clipPath>
</defs>
</svg>
