<svg width="48" height="44" viewBox="0 0 48 44" fill="none" xmlns="http://www.w3.org/2000/svg">
<path d="M23.9903 8.29175C23.5274 8.29175 23.1424 8.13593 22.8355 7.82429C22.5286 7.51301 22.3751 7.12716 22.3751 6.66675V1.79175C22.3751 1.33133 22.5318 0.945303 22.8452 0.633664C23.1583 0.322387 23.5465 0.166748 24.0098 0.166748C24.4728 0.166748 24.8577 0.322387 25.1647 0.633664C25.4716 0.945303 25.6251 1.33133 25.6251 1.79175V6.66675C25.6251 7.12716 25.4684 7.51301 25.1549 7.82429C24.8418 8.13593 24.4536 8.29175 23.9903 8.29175ZM35.1042 12.8959C34.7792 12.5709 34.6167 12.1827 34.6167 11.7313C34.6167 11.2799 34.7792 10.8917 35.1042 10.5667L38.5167 7.15425C38.8443 6.82925 39.233 6.66675 39.683 6.66675C40.1333 6.66675 40.5209 6.82925 40.8459 7.15425C41.1709 7.47925 41.3334 7.85841 41.3334 8.29175C41.3334 8.72508 41.1709 9.10425 40.8459 9.42925L37.3792 12.8959C37.0542 13.2209 36.6751 13.3834 36.2417 13.3834C35.8084 13.3834 35.4292 13.2209 35.1042 12.8959ZM41.3334 25.6251C40.873 25.6251 40.4872 25.4684 40.1759 25.1549C39.8642 24.8418 39.7084 24.4536 39.7084 23.9903C39.7084 23.5274 39.8642 23.1424 40.1759 22.8355C40.4872 22.5286 40.873 22.3751 41.3334 22.3751H46.2084C46.6688 22.3751 47.0549 22.5318 47.3665 22.8452C47.6778 23.1583 47.8334 23.5465 47.8334 24.0098C47.8334 24.4728 47.6778 24.8577 47.3665 25.1647C47.0549 25.4716 46.6688 25.6251 46.2084 25.6251H41.3334ZM38.5709 40.8459L35.1584 37.4334C34.8334 37.1084 34.6709 36.7202 34.6709 36.2688C34.6709 35.8174 34.8334 35.4292 35.1584 35.1042C35.4834 34.7792 35.8716 34.6167 36.323 34.6167C36.7744 34.6167 37.1626 34.7792 37.4876 35.1042L40.9001 38.5167C41.2251 38.8443 41.3876 39.233 41.3876 39.683C41.3876 40.1333 41.2242 40.5209 40.8974 40.8459C40.5702 41.1709 40.182 41.3334 39.7328 41.3334C39.2832 41.3334 38.8959 41.1709 38.5709 40.8459ZM10.6209 12.8959L7.15425 9.42925C6.82925 9.10425 6.66675 8.72508 6.66675 8.29175C6.66675 7.85841 6.82925 7.47925 7.15425 7.15425C7.47203 6.82925 7.84939 6.66675 8.28633 6.66675C8.72328 6.66675 9.10425 6.82925 9.42925 7.15425L12.8959 10.6209C13.2209 10.9459 13.3834 11.3251 13.3834 11.7584C13.3834 12.1917 13.2209 12.5709 12.8959 12.8959C12.5709 13.2209 12.1917 13.3834 11.7584 13.3834C11.3251 13.3834 10.9459 13.2209 10.6209 12.8959ZM11.0001 40.2501H20.7501C21.9537 40.2501 22.9769 39.8301 23.8197 38.9902C24.6622 38.1499 25.0834 37.1297 25.0834 35.9297C25.0834 34.7294 24.6725 33.6959 23.8506 32.8292C23.0283 31.9626 22.0129 31.5292 20.8042 31.5292H18.4209L17.4459 29.3084C16.8988 28.0174 16.0394 26.9904 14.8676 26.2274C13.6958 25.4647 12.4066 25.0834 11.0001 25.0834C8.89372 25.0834 7.10315 25.8194 5.62837 27.2912C4.15396 28.7635 3.41675 30.551 3.41675 32.6537C3.41675 34.7569 4.15396 36.5487 5.62837 38.0292C7.10315 39.5098 8.89372 40.2501 11.0001 40.2501ZM11.0001 43.5001C8.00286 43.5001 5.448 42.4438 3.3355 40.3313C1.223 38.2188 0.166748 35.664 0.166748 32.6667C0.166748 29.6695 1.223 27.1147 3.3355 25.0022C5.448 22.8897 8.00286 21.8334 11.0001 21.8334C13.0851 21.8334 14.9877 22.4202 16.7076 23.5938C18.4276 24.7674 19.7029 26.3292 20.5334 28.2792C22.7044 28.2792 24.5291 29.0663 26.0075 30.6404C27.4859 32.2145 28.2251 34.0996 28.2251 36.2959C28.0445 38.3181 27.2495 40.0244 25.8401 41.4147C24.4303 42.8049 22.7337 43.5001 20.7501 43.5001H11.0001ZM28.2251 36.2959C28.1167 35.7405 28.0084 35.1989 27.9001 34.6709C27.7917 34.143 27.6834 33.6013 27.5751 33.0459C29.4529 32.3237 30.9515 31.1403 32.0709 29.4958C33.1904 27.8513 33.7501 26.0219 33.7501 24.0077C33.7501 21.2943 32.8022 18.9897 30.9063 17.0938C29.0105 15.198 26.7084 14.2501 24.0001 14.2501C21.5727 14.2501 19.4488 15.0205 17.6285 16.5614C15.8081 18.1026 14.7361 20.0586 14.4126 22.4292C13.8348 22.3209 13.2661 22.2216 12.7063 22.1313C12.1466 22.0411 11.5779 21.9417 11.0001 21.8334C11.5056 18.6556 12.9952 16.0556 15.4688 14.0334C17.9424 12.0112 20.7862 11.0001 24.0001 11.0001C27.6112 11.0001 30.6806 12.264 33.2084 14.7917C35.7362 17.3195 37.0001 20.3951 37.0001 24.0185C37.0001 26.8229 36.1966 29.3445 34.5897 31.5834C32.9827 33.8223 30.8612 35.3931 28.2251 36.2959Z" fill="#E8EAED"/>
</svg>
