<svg width="220" height="68" viewBox="0 0 220 68" fill="none" xmlns="http://www.w3.org/2000/svg">
<rect x="1.5" y="1.5" width="217" height="65" rx="32.5" fill="url(#paint0_linear_1212_1401)"/>
<rect x="1.5" y="1.5" width="217" height="65" rx="32.5" stroke="url(#paint1_linear_1212_1401)" stroke-width="3"/>
<path fill-rule="evenodd" clip-rule="evenodd" d="M67.8302 34C70.3678 32.9085 72.4066 30.8444 73.5 28.2643C74.5934 30.8444 76.6322 32.9085 79.1698 34C76.6322 35.0915 74.5934 37.1556 73.5 39.7357C72.4066 37.1556 70.3678 35.0915 67.8302 34ZM73.5 24L63.5 34L73.5 44L83.5 34L73.5 24Z" fill="#17191B"/>
<path d="M93.0473 27.3H95.1973L100.177 40.5H97.9373L96.8473 37.48H91.4073L90.3073 40.5H88.0573L93.0473 27.3ZM92.0873 35.61H96.1673L94.1373 29.86H94.1073L92.0873 35.61ZM101.617 40.5V32.29H103.747V40.5H101.617ZM102.707 29.83C102.347 29.83 102.037 29.7 101.777 29.44C101.523 29.18 101.397 28.87 101.397 28.51C101.397 28.15 101.523 27.84 101.777 27.58C102.037 27.3133 102.347 27.18 102.707 27.18C102.947 27.18 103.167 27.2433 103.367 27.37C103.573 27.49 103.737 27.65 103.857 27.85C103.983 28.0433 104.047 28.2633 104.047 28.51C104.047 28.87 103.917 29.18 103.657 29.44C103.397 29.7 103.08 29.83 102.707 29.83ZM123.95 27.3V40.5H121.85V31.51L121.95 29.82L121.55 31.72L118.66 39.66H116.59L113.71 31.72L113.31 29.82L113.41 31.51V40.5H111.31V27.3H114.18L117.48 37.18L117.63 37.97L117.77 37.18L121.09 27.3H123.95ZM130.504 40.74C129.644 40.74 128.877 40.5533 128.204 40.18C127.537 39.8 127.014 39.2867 126.634 38.64C126.254 37.9867 126.064 37.2467 126.064 36.42C126.064 35.5933 126.254 34.85 126.634 34.19C127.014 33.53 127.537 33.01 128.204 32.63C128.877 32.2433 129.644 32.05 130.504 32.05C131.364 32.05 132.124 32.2433 132.784 32.63C133.444 33.01 133.96 33.53 134.334 34.19C134.714 34.85 134.904 35.5933 134.904 36.42C134.904 37.2467 134.714 37.9867 134.334 38.64C133.96 39.2867 133.444 39.8 132.784 40.18C132.124 40.5533 131.364 40.74 130.504 40.74ZM130.504 38.94C130.984 38.94 131.4 38.83 131.754 38.61C132.107 38.39 132.38 38.09 132.574 37.71C132.767 37.33 132.864 36.8967 132.864 36.41C132.864 35.9233 132.767 35.49 132.574 35.11C132.38 34.7233 132.107 34.4167 131.754 34.19C131.4 33.9633 130.984 33.85 130.504 33.85C130.024 33.85 129.604 33.9633 129.244 34.19C128.89 34.4167 128.614 34.7233 128.414 35.11C128.22 35.49 128.124 35.9233 128.124 36.41C128.124 36.8967 128.22 37.33 128.414 37.71C128.614 38.09 128.89 38.39 129.244 38.61C129.604 38.83 130.024 38.94 130.504 38.94ZM140.301 40.74C139.527 40.74 138.844 40.5567 138.251 40.19C137.657 39.8233 137.191 39.3133 136.851 38.66C136.517 38.0067 136.351 37.2533 136.351 36.4C136.351 35.5467 136.517 34.7933 136.851 34.14C137.191 33.4867 137.657 32.9767 138.251 32.61C138.844 32.2367 139.527 32.05 140.301 32.05C140.874 32.05 141.384 32.15 141.831 32.35C142.277 32.5433 142.634 32.77 142.901 33.03C143.167 33.29 143.324 33.52 143.371 33.72V26.74H145.511V40.5H143.401V38.98C143.307 39.2133 143.117 39.4667 142.831 39.74C142.544 40.0133 142.181 40.25 141.741 40.45C141.307 40.6433 140.827 40.74 140.301 40.74ZM140.851 39.01C141.317 39.01 141.741 38.9 142.121 38.68C142.501 38.46 142.804 38.1567 143.031 37.77C143.257 37.3767 143.371 36.92 143.371 36.4C143.371 35.88 143.257 35.4267 143.031 35.04C142.804 34.6467 142.501 34.34 142.121 34.12C141.741 33.8933 141.317 33.78 140.851 33.78C140.424 33.78 140.027 33.89 139.661 34.11C139.301 34.3233 139.011 34.6267 138.791 35.02C138.571 35.4133 138.461 35.8733 138.461 36.4C138.461 36.9267 138.571 37.3867 138.791 37.78C139.011 38.1733 139.301 38.4767 139.661 38.69C140.027 38.9033 140.424 39.01 140.851 39.01ZM148.864 36.9C148.878 37.3333 148.981 37.7233 149.174 38.07C149.368 38.4167 149.651 38.69 150.024 38.89C150.404 39.0833 150.868 39.18 151.414 39.18C151.888 39.18 152.294 39.1167 152.634 38.99C152.981 38.8567 153.268 38.7 153.494 38.52C153.721 38.3333 153.888 38.16 153.994 38L154.944 39.29C154.738 39.57 154.478 39.82 154.164 40.04C153.851 40.26 153.461 40.43 152.994 40.55C152.534 40.6767 151.964 40.74 151.284 40.74C150.391 40.74 149.614 40.5567 148.954 40.19C148.294 39.8233 147.781 39.3067 147.414 38.64C147.054 37.9733 146.874 37.1933 146.874 36.3C146.874 35.5 147.041 34.78 147.374 34.14C147.708 33.4933 148.191 32.9833 148.824 32.61C149.464 32.2367 150.231 32.05 151.124 32.05C151.958 32.05 152.681 32.2167 153.294 32.55C153.908 32.8833 154.381 33.3633 154.714 33.99C155.054 34.61 155.224 35.36 155.224 36.24C155.224 36.2933 155.221 36.4033 155.214 36.57C155.214 36.7367 155.208 36.8467 155.194 36.9H148.864ZM153.224 35.34C153.218 35.1267 153.144 34.8833 153.004 34.61C152.871 34.3367 152.654 34.1 152.354 33.9C152.054 33.6933 151.654 33.59 151.154 33.59C150.641 33.59 150.224 33.69 149.904 33.89C149.584 34.0833 149.348 34.3167 149.194 34.59C149.041 34.8567 148.951 35.1067 148.924 35.34H153.224Z" fill="#17191B"/>
<defs>
<linearGradient id="paint0_linear_1212_1401" x1="3" y1="34" x2="217" y2="34" gradientUnits="userSpaceOnUse">
<stop stop-color="#79FF00"/>
<stop offset="1" stop-color="#00FFFF"/>
</linearGradient>
<linearGradient id="paint1_linear_1212_1401" x1="3" y1="34" x2="217" y2="34" gradientUnits="userSpaceOnUse">
<stop stop-color="#E0FFC7"/>
<stop offset="1" stop-color="#98FFF9"/>
</linearGradient>
</defs>
</svg>
