<svg width="393" height="268" viewBox="0 0 393 268" fill="none" xmlns="http://www.w3.org/2000/svg">
<circle cx="196" cy="131" r="100" stroke="#434343" stroke-width="30"/>
<path d="M256.376 33.1237C241.499 23.947 224.726 18.2821 207.332 16.5597C189.938 14.8373 172.38 17.1026 155.993 23.1835C139.605 29.2643 124.819 39.0008 112.759 51.6529C100.699 64.3049 91.6814 79.5397 86.392 96.1995C81.1025 112.859 79.6803 130.505 82.2333 147.797C84.7864 165.089 91.2477 181.571 101.126 195.992C111.004 210.412 124.04 222.391 139.242 231.018C154.444 239.644 171.412 244.692 188.858 245.778L190.731 215.679C177.86 214.878 165.342 211.153 154.126 204.789C142.911 198.424 133.294 189.587 126.006 178.948C118.718 168.31 113.951 156.15 112.068 143.392C110.184 130.635 111.233 117.616 115.136 105.326C119.038 93.0347 125.691 81.7951 134.588 72.4609C143.486 63.1267 154.394 55.9436 166.484 51.4574C178.574 46.9711 191.528 45.2999 204.36 46.5706C217.193 47.8414 229.567 52.0206 240.543 58.7909L256.376 33.1237Z" fill="#C23E33"/>
<g filter="url(#filter0_d_1_226)">
<path d="M279.5 130.503C279.5 176.336 242.124 213.506 196 213.506C149.876 213.506 112.5 176.336 112.5 130.503C112.5 84.67 149.876 47.5 196 47.5C242.124 47.5 279.5 84.67 279.5 130.503Z" stroke="white" stroke-width="3" shape-rendering="crispEdges"/>
</g>
<g filter="url(#filter1_d_1_226)">
<path d="M243.5 54.5L256.638 33.2774" stroke="white"/>
</g>
<g filter="url(#filter2_d_1_226)">
<path d="M242.927 63.3722L235.774 59.1144C235.492 58.9467 235.261 58.7048 235.109 58.4168C234.956 58.1288 234.889 57.8064 234.914 57.4869C234.946 57.109 235.085 56.7504 235.315 56.4519C235.546 56.1534 235.859 55.927 236.218 55.7986L242.294 53.7279C242.528 53.6545 242.777 53.6319 243.023 53.6616C243.269 53.6914 243.507 53.7728 243.722 53.9004C243.936 54.0279 244.121 54.1987 244.265 54.401C244.408 54.6033 244.507 54.8325 244.554 55.073L245.63 61.4015C245.689 61.7787 245.639 62.1617 245.486 62.5067C245.334 62.8516 245.085 63.1448 244.768 63.3528C244.499 63.5271 244.183 63.6214 243.857 63.6249C243.532 63.6283 243.209 63.5407 242.927 63.3722Z" fill="white"/>
</g>
<rect y="46" width="393" height="200" fill="url(#paint0_linear_1_226)"/>
<path d="M320.389 186.261C329.03 165.859 332.477 143.634 330.423 121.573C328.368 99.5125 320.875 78.3058 308.615 59.851C296.355 41.3962 279.71 26.2694 260.171 15.8245C240.631 5.37966 218.807 -0.0572542 196.651 0.000454546C174.495 0.0581633 152.699 5.60869 133.214 16.1552C113.73 26.7017 97.1639 41.915 85.0002 60.4334C72.8365 78.9518 65.4543 100.197 63.5145 122.268C61.5748 144.339 65.1379 166.547 73.885 186.903L83.1187 182.935C75.0276 164.106 71.7317 143.564 73.526 123.148C75.3202 102.733 82.1487 83.0804 93.4002 65.9509C104.652 48.8214 119.975 34.7491 137.998 24.9936C156.022 15.238 176.183 10.1038 196.677 10.0504C217.171 9.99704 237.359 15.0262 255.433 24.6877C273.507 34.3492 288.903 48.3415 300.244 65.4122C311.584 82.4828 318.515 102.099 320.416 122.505C322.316 142.911 319.128 163.47 311.135 182.341L320.389 186.261Z" fill="#434343"/>
<circle cx="316" cy="184" r="5" fill="#434343"/>
<path d="M261.679 16.6432C237.261 3.18582 209.254 -2.32008 181.559 0.892593C153.864 4.10527 127.861 15.8765 107.173 34.5663C86.4841 53.2562 72.1405 77.9337 66.1401 105.161C60.1397 132.388 62.7815 160.809 73.6973 186.464L82.945 182.529C72.8479 158.798 70.4043 132.509 75.9546 107.324C81.5049 82.1387 94.7728 59.3119 113.91 42.0239C133.047 24.7358 157.1 13.8474 182.717 10.8756C208.335 7.90392 234.242 12.9969 256.828 25.445L261.679 16.6432Z" fill="url(#paint1_angular_1_226)"/>
<circle cx="78" cy="184" r="5" fill="#C23E33"/>
<circle cx="262" cy="22" r="6" fill="white" stroke="#7B7B7B" stroke-width="4"/>
<path d="M162.22 110.136C160.988 110.136 159.9 110.4 158.956 110.928C158.028 111.44 157.252 112.048 156.628 112.752C156.004 113.456 155.524 114.096 155.188 114.672C154.868 115.248 154.692 115.568 154.66 115.632L150.268 113.664C150.3 113.52 150.452 113.16 150.724 112.584C150.996 111.992 151.42 111.32 151.996 110.568C152.572 109.8 153.316 109.048 154.228 108.312C155.156 107.576 156.276 106.968 157.588 106.488C158.916 105.992 160.46 105.744 162.22 105.744C164.124 105.744 165.74 106.008 167.068 106.536C168.396 107.064 169.476 107.792 170.308 108.72C171.14 109.632 171.748 110.68 172.132 111.864C172.516 113.048 172.708 114.296 172.708 115.608C172.708 116.952 172.396 118.312 171.772 119.688C171.164 121.064 170.372 122.4 169.396 123.696C168.42 124.976 167.372 126.176 166.252 127.296C165.132 128.416 164.044 129.416 162.988 130.296C161.948 131.176 161.052 131.896 160.3 132.456C159.564 133.016 159.1 133.368 158.908 133.512H172.444V138H151.132V133.92C151.548 133.584 152.228 133.048 153.172 132.312C154.132 131.576 155.236 130.704 156.484 129.696C157.732 128.672 158.996 127.56 160.276 126.36C161.572 125.16 162.772 123.928 163.876 122.664C164.996 121.4 165.892 120.16 166.564 118.944C167.252 117.728 167.596 116.592 167.596 115.536C167.596 113.552 167.132 112.16 166.204 111.36C165.276 110.544 163.948 110.136 162.22 110.136ZM194.56 106.32V126.84H198.184V131.328H194.56V138H189.496V131.328H176.248V127.224L188.92 106.32H194.56ZM189.496 126.84V113.448H189.472L181.48 126.84H189.496ZM202.717 108.36C202.717 107.288 203.101 106.424 203.869 105.768C204.637 105.096 205.573 104.76 206.677 104.76C207.765 104.76 208.685 105.096 209.437 105.768C210.205 106.424 210.589 107.288 210.589 108.36C210.589 109.4 210.221 110.264 209.485 110.952C208.749 111.624 207.813 111.96 206.677 111.96C205.509 111.96 204.557 111.624 203.821 110.952C203.085 110.264 202.717 109.4 202.717 108.36ZM204.853 108.36C204.853 108.856 205.021 109.288 205.357 109.656C205.693 110.024 206.133 110.208 206.677 110.208C207.189 110.208 207.621 110.024 207.973 109.656C208.325 109.288 208.501 108.856 208.501 108.36C208.501 107.832 208.317 107.4 207.949 107.064C207.597 106.712 207.173 106.536 206.677 106.536C206.165 106.536 205.733 106.712 205.381 107.064C205.029 107.4 204.853 107.832 204.853 108.36ZM232.537 133.584C234.361 133.584 235.953 133.336 237.313 132.84C238.689 132.328 239.689 131.824 240.313 131.328L242.473 135.648C241.753 136.288 240.497 136.936 238.705 137.592C236.913 138.248 234.769 138.576 232.273 138.576C229.937 138.576 227.761 138.16 225.745 137.328C223.729 136.496 221.961 135.344 220.441 133.872C218.921 132.384 217.737 130.648 216.889 128.664C216.041 126.68 215.617 124.528 215.617 122.208C215.617 119.888 216.041 117.728 216.889 115.728C217.737 113.728 218.913 111.984 220.417 110.496C221.937 109.008 223.705 107.848 225.721 107.016C227.753 106.168 229.937 105.744 232.273 105.744C234.769 105.744 236.913 106.072 238.705 106.728C240.497 107.384 241.753 108.032 242.473 108.672L240.313 112.992C239.689 112.496 238.689 112 237.313 111.504C235.953 110.992 234.361 110.736 232.537 110.736C230.809 110.736 229.241 111.024 227.833 111.6C226.425 112.176 225.217 112.984 224.209 114.024C223.201 115.064 222.425 116.28 221.881 117.672C221.337 119.048 221.065 120.536 221.065 122.136C221.065 123.752 221.337 125.256 221.881 126.648C222.425 128.04 223.201 129.256 224.209 130.296C225.217 131.336 226.425 132.144 227.833 132.72C229.241 133.296 230.809 133.584 232.537 133.584Z" fill="white"/>
<path d="M163.333 153.052C162.918 153.052 162.556 153.137 162.246 153.307C161.941 153.472 161.683 153.667 161.473 153.892C161.268 154.112 161.111 154.315 161.001 154.5C160.896 154.68 160.838 154.78 160.828 154.8L159.696 154.305C159.706 154.26 159.753 154.152 159.838 153.982C159.923 153.807 160.056 153.605 160.236 153.375C160.416 153.145 160.646 152.92 160.926 152.7C161.206 152.475 161.543 152.29 161.938 152.145C162.338 151.995 162.803 151.92 163.333 151.92C163.873 151.92 164.341 151.995 164.736 152.145C165.131 152.295 165.456 152.505 165.711 152.775C165.966 153.045 166.156 153.365 166.281 153.735C166.406 154.105 166.468 154.507 166.468 154.942C166.468 155.362 166.368 155.792 166.168 156.232C165.968 156.672 165.708 157.105 165.388 157.53C165.068 157.95 164.723 158.347 164.353 158.722C163.988 159.092 163.633 159.427 163.288 159.727C162.948 160.027 162.653 160.275 162.403 160.47C162.158 160.66 161.998 160.785 161.923 160.845H166.386V162H159.921V160.942C160.076 160.822 160.308 160.64 160.618 160.395C160.933 160.145 161.288 159.852 161.683 159.517C162.078 159.182 162.478 158.82 162.883 158.43C163.288 158.04 163.663 157.642 164.008 157.237C164.353 156.827 164.631 156.427 164.841 156.037C165.056 155.642 165.163 155.272 165.163 154.927C165.163 154.237 165.003 153.752 164.683 153.472C164.368 153.192 163.918 153.052 163.333 153.052ZM171.777 155.55C172.337 155.55 172.854 155.69 173.329 155.97C173.809 156.245 174.197 156.63 174.492 157.125C174.787 157.615 174.934 158.185 174.934 158.835C174.934 159.48 174.777 160.055 174.462 160.56C174.152 161.06 173.732 161.455 173.202 161.745C172.677 162.035 172.097 162.18 171.462 162.18C170.812 162.18 170.224 162.038 169.699 161.753C169.179 161.462 168.767 161.057 168.462 160.537C168.157 160.017 168.004 159.41 168.004 158.715C168.004 157.985 168.129 157.367 168.379 156.862C168.629 156.352 168.924 155.887 169.264 155.467L171.957 152.1H173.494L170.232 156.052C170.342 155.932 170.529 155.82 170.794 155.715C171.064 155.605 171.392 155.55 171.777 155.55ZM171.484 161.092C171.894 161.092 172.267 160.992 172.602 160.792C172.942 160.587 173.212 160.315 173.412 159.975C173.612 159.635 173.712 159.26 173.712 158.85C173.712 158.44 173.612 158.067 173.412 157.732C173.212 157.392 172.942 157.122 172.602 156.922C172.267 156.722 171.894 156.622 171.484 156.622C171.069 156.622 170.692 156.722 170.352 156.922C170.017 157.122 169.747 157.392 169.542 157.732C169.342 158.067 169.242 158.44 169.242 158.85C169.242 159.26 169.342 159.635 169.542 159.975C169.747 160.315 170.017 160.587 170.352 160.792C170.692 160.992 171.069 161.092 171.484 161.092ZM176.686 152.737C176.686 152.417 176.799 152.16 177.024 151.965C177.249 151.765 177.524 151.665 177.849 151.665C178.174 151.665 178.446 151.765 178.666 151.965C178.891 152.16 179.004 152.417 179.004 152.737C179.004 153.052 178.896 153.31 178.681 153.51C178.466 153.71 178.189 153.81 177.849 153.81C177.504 153.81 177.224 153.71 177.009 153.51C176.794 153.31 176.686 153.052 176.686 152.737ZM177.264 152.737C177.264 152.897 177.319 153.037 177.429 153.157C177.539 153.272 177.679 153.33 177.849 153.33C178.014 153.33 178.154 153.272 178.269 153.157C178.384 153.037 178.441 152.897 178.441 152.737C178.441 152.572 178.384 152.435 178.269 152.325C178.154 152.21 178.014 152.152 177.849 152.152C177.689 152.152 177.551 152.21 177.436 152.325C177.321 152.435 177.264 152.572 177.264 152.737ZM185.856 160.912C186.471 160.912 187.004 160.827 187.454 160.657C187.909 160.487 188.231 160.322 188.421 160.162L188.984 161.265C188.759 161.465 188.366 161.667 187.806 161.872C187.251 162.077 186.584 162.18 185.804 162.18C185.074 162.18 184.396 162.05 183.771 161.79C183.146 161.53 182.599 161.167 182.129 160.702C181.664 160.237 181.299 159.695 181.034 159.075C180.774 158.455 180.644 157.785 180.644 157.065C180.644 156.345 180.774 155.672 181.034 155.047C181.294 154.422 181.656 153.877 182.121 153.412C182.591 152.942 183.139 152.577 183.764 152.317C184.394 152.052 185.074 151.92 185.804 151.92C186.584 151.92 187.251 152.022 187.806 152.227C188.366 152.432 188.759 152.635 188.984 152.835L188.421 153.937C188.231 153.772 187.909 153.607 187.454 153.442C187.004 153.272 186.471 153.187 185.856 153.187C185.296 153.187 184.784 153.282 184.319 153.472C183.854 153.662 183.449 153.932 183.104 154.282C182.764 154.627 182.499 155.035 182.309 155.505C182.124 155.975 182.031 156.487 182.031 157.042C182.031 157.602 182.124 158.12 182.309 158.595C182.499 159.065 182.764 159.475 183.104 159.825C183.449 160.17 183.854 160.437 184.319 160.627C184.784 160.817 185.296 160.912 185.856 160.912ZM194.367 162V155.842H195.672V162H194.367ZM195.034 153.735C194.799 153.735 194.597 153.652 194.427 153.487C194.262 153.317 194.179 153.115 194.179 152.88C194.179 152.645 194.262 152.442 194.427 152.272C194.597 152.102 194.799 152.017 195.034 152.017C195.189 152.017 195.332 152.057 195.462 152.137C195.597 152.217 195.704 152.322 195.784 152.452C195.864 152.577 195.904 152.72 195.904 152.88C195.904 153.115 195.819 153.317 195.649 153.487C195.479 153.652 195.274 153.735 195.034 153.735ZM201.109 155.662C201.514 155.662 201.906 155.747 202.286 155.917C202.671 156.087 202.986 156.357 203.231 156.727C203.481 157.092 203.606 157.57 203.606 158.16V162H202.286V158.415C202.286 157.805 202.144 157.362 201.859 157.087C201.574 156.807 201.206 156.667 200.756 156.667C200.461 156.667 200.176 156.752 199.901 156.922C199.631 157.087 199.409 157.317 199.234 157.612C199.059 157.902 198.971 158.232 198.971 158.602V162H197.666V155.842H198.971V156.937C199.016 156.767 199.139 156.582 199.339 156.382C199.539 156.182 199.794 156.012 200.104 155.872C200.414 155.732 200.749 155.662 201.109 155.662ZM208.028 162.18C207.463 162.18 206.955 162.045 206.505 161.775C206.06 161.505 205.708 161.127 205.448 160.642C205.193 160.152 205.065 159.58 205.065 158.925C205.065 158.27 205.193 157.7 205.448 157.215C205.708 156.725 206.06 156.345 206.505 156.075C206.955 155.8 207.463 155.662 208.028 155.662C208.483 155.662 208.883 155.742 209.228 155.902C209.573 156.057 209.848 156.24 210.053 156.45C210.258 156.66 210.375 156.842 210.405 156.997V151.68H211.718V162H210.428V160.8C210.373 160.97 210.235 161.162 210.015 161.377C209.8 161.592 209.523 161.78 209.183 161.94C208.843 162.1 208.458 162.18 208.028 162.18ZM208.328 161.1C208.708 161.1 209.055 161.01 209.37 160.83C209.685 160.65 209.935 160.397 210.12 160.073C210.31 159.742 210.405 159.36 210.405 158.925C210.405 158.49 210.31 158.11 210.12 157.785C209.935 157.455 209.685 157.2 209.37 157.02C209.055 156.835 208.708 156.742 208.328 156.742C207.978 156.742 207.653 156.832 207.353 157.012C207.053 157.192 206.81 157.445 206.625 157.77C206.445 158.095 206.355 158.48 206.355 158.925C206.355 159.37 206.445 159.755 206.625 160.08C206.81 160.405 207.053 160.657 207.353 160.837C207.653 161.012 207.978 161.1 208.328 161.1ZM216.029 162.18C215.394 162.18 214.829 162.038 214.334 161.753C213.844 161.467 213.459 161.082 213.179 160.597C212.899 160.107 212.759 159.555 212.759 158.94C212.759 158.325 212.899 157.77 213.179 157.275C213.459 156.78 213.844 156.387 214.334 156.097C214.829 155.807 215.394 155.662 216.029 155.662C216.659 155.662 217.217 155.807 217.702 156.097C218.192 156.387 218.574 156.78 218.849 157.275C219.124 157.77 219.262 158.325 219.262 158.94C219.262 159.555 219.124 160.107 218.849 160.597C218.574 161.082 218.192 161.467 217.702 161.753C217.217 162.038 216.659 162.18 216.029 162.18ZM216.029 161.062C216.429 161.062 216.777 160.97 217.072 160.785C217.372 160.6 217.604 160.347 217.769 160.027C217.934 159.702 218.017 159.337 218.017 158.932C218.017 158.527 217.934 158.162 217.769 157.837C217.604 157.512 217.372 157.255 217.072 157.065C216.777 156.875 216.429 156.78 216.029 156.78C215.624 156.78 215.272 156.875 214.972 157.065C214.672 157.255 214.437 157.512 214.267 157.837C214.102 158.162 214.019 158.527 214.019 158.932C214.019 159.337 214.102 159.702 214.267 160.027C214.437 160.347 214.672 160.6 214.972 160.785C215.272 160.97 215.624 161.062 216.029 161.062ZM223.558 162.18C222.923 162.18 222.358 162.038 221.863 161.753C221.373 161.467 220.988 161.082 220.708 160.597C220.428 160.107 220.288 159.555 220.288 158.94C220.288 158.325 220.428 157.77 220.708 157.275C220.988 156.78 221.373 156.387 221.863 156.097C222.358 155.807 222.923 155.662 223.558 155.662C224.188 155.662 224.746 155.807 225.231 156.097C225.721 156.387 226.103 156.78 226.378 157.275C226.653 157.77 226.791 158.325 226.791 158.94C226.791 159.555 226.653 160.107 226.378 160.597C226.103 161.082 225.721 161.467 225.231 161.753C224.746 162.038 224.188 162.18 223.558 162.18ZM223.558 161.062C223.958 161.062 224.306 160.97 224.601 160.785C224.901 160.6 225.133 160.347 225.298 160.027C225.463 159.702 225.546 159.337 225.546 158.932C225.546 158.527 225.463 158.162 225.298 157.837C225.133 157.512 224.901 157.255 224.601 157.065C224.306 156.875 223.958 156.78 223.558 156.78C223.153 156.78 222.801 156.875 222.501 157.065C222.201 157.255 221.966 157.512 221.796 157.837C221.631 158.162 221.548 158.527 221.548 158.932C221.548 159.337 221.631 159.702 221.796 160.027C221.966 160.347 222.201 160.6 222.501 160.785C222.801 160.97 223.153 161.062 223.558 161.062ZM229.52 162H228.223V155.842H229.52V156.907H229.483C229.508 156.777 229.6 156.615 229.76 156.42C229.92 156.225 230.14 156.05 230.42 155.895C230.7 155.74 231.035 155.662 231.425 155.662C231.71 155.662 231.96 155.702 232.175 155.782C232.395 155.857 232.55 155.932 232.64 156.007L232.108 157.087C232.038 157.017 231.915 156.947 231.74 156.877C231.565 156.802 231.348 156.765 231.088 156.765C230.758 156.765 230.475 156.867 230.24 157.072C230.005 157.277 229.825 157.525 229.7 157.815C229.58 158.1 229.52 158.365 229.52 158.61V162Z" fill="#D9D9D9"/>
<defs>
<filter id="filter0_d_1_226" x="107" y="46" width="178" height="177.006" filterUnits="userSpaceOnUse" color-interpolation-filters="sRGB">
<feFlood flood-opacity="0" result="BackgroundImageFix"/>
<feColorMatrix in="SourceAlpha" type="matrix" values="0 0 0 0 0 0 0 0 0 0 0 0 0 0 0 0 0 0 127 0" result="hardAlpha"/>
<feOffset dy="4"/>
<feGaussianBlur stdDeviation="2"/>
<feComposite in2="hardAlpha" operator="out"/>
<feColorMatrix type="matrix" values="0 0 0 0 0 0 0 0 0 0 0 0 0 0 0 0 0 0 0.25 0"/>
<feBlend mode="normal" in2="BackgroundImageFix" result="effect1_dropShadow_1_226"/>
<feBlend mode="normal" in="SourceGraphic" in2="effect1_dropShadow_1_226" result="shape"/>
</filter>
<filter id="filter1_d_1_226" x="239.075" y="33.0142" width="21.9883" height="29.749" filterUnits="userSpaceOnUse" color-interpolation-filters="sRGB">
<feFlood flood-opacity="0" result="BackgroundImageFix"/>
<feColorMatrix in="SourceAlpha" type="matrix" values="0 0 0 0 0 0 0 0 0 0 0 0 0 0 0 0 0 0 127 0" result="hardAlpha"/>
<feOffset dy="4"/>
<feGaussianBlur stdDeviation="2"/>
<feComposite in2="hardAlpha" operator="out"/>
<feColorMatrix type="matrix" values="0 0 0 0 0 0 0 0 0 0 0 0 0 0 0 0 0 0 0.25 0"/>
<feBlend mode="normal" in2="BackgroundImageFix" result="effect1_dropShadow_1_226"/>
<feBlend mode="normal" in="SourceGraphic" in2="effect1_dropShadow_1_226" result="shape"/>
</filter>
<filter id="filter2_d_1_226" x="221.235" y="42" width="40.1519" height="39.8989" filterUnits="userSpaceOnUse" color-interpolation-filters="sRGB">
<feFlood flood-opacity="0" result="BackgroundImageFix"/>
<feColorMatrix in="SourceAlpha" type="matrix" values="0 0 0 0 0 0 0 0 0 0 0 0 0 0 0 0 0 0 127 0" result="hardAlpha"/>
<feOffset dy="4"/>
<feGaussianBlur stdDeviation="2"/>
<feComposite in2="hardAlpha" operator="out"/>
<feColorMatrix type="matrix" values="0 0 0 0 0 0 0 0 0 0 0 0 0 0 0 0 0 0 0.25 0"/>
<feBlend mode="normal" in2="BackgroundImageFix" result="effect1_dropShadow_1_226"/>
<feBlend mode="normal" in="SourceGraphic" in2="effect1_dropShadow_1_226" result="shape"/>
</filter>
<linearGradient id="paint0_linear_1_226" x1="196.5" y1="46" x2="196.5" y2="246" gradientUnits="userSpaceOnUse">
<stop stop-color="#2C2E2F" stop-opacity="0"/>
<stop offset="0.539" stop-color="#191A1B" stop-opacity="0.85"/>
<stop offset="0.699" stop-color="#191A1B"/>
</linearGradient>
<radialGradient id="paint1_angular_1_226" cx="0" cy="0" r="1" gradientUnits="userSpaceOnUse" gradientTransform="translate(197 134) rotate(90) scale(134)">
<stop offset="0.226666" stop-color="#C23E33"/>
<stop offset="0.615251" stop-color="#E66305"/>
</radialGradient>
</defs>
</svg>
