<svg width="123" height="62" viewBox="0 0 123 62" fill="none" xmlns="http://www.w3.org/2000/svg">
<rect width="123" height="62" rx="31" fill="#C25555"/>
<rect x="5" y="4.5" width="53" height="53" rx="26.5" fill="#191A1B" stroke="#FF8479" stroke-width="2"/>
<path d="M38.1249 25.6399C39.4357 26.8987 40.3283 28.5023 40.6897 30.2481C41.0512 31.9938 40.8654 33.8033 40.1557 35.4477C39.4461 37.092 38.2444 38.4975 36.7028 39.4863C35.1612 40.4751 33.3487 41.0028 31.4946 41.0028C29.6406 41.0028 27.8281 40.4751 26.2865 39.4863C24.7448 38.4975 23.5432 37.092 22.8336 35.4477C22.1239 33.8033 21.9381 31.9938 22.2995 30.2481C22.661 28.5023 23.5536 26.8987 24.8644 25.6399" stroke="white" stroke-width="2" stroke-linecap="round" stroke-linejoin="round"/>
<path d="M31.5 21V31" stroke="white" stroke-width="2" stroke-linecap="round" stroke-linejoin="round"/>
<path d="M70.077 30.39C70.077 31.2967 70.267 32.12 70.647 32.86C71.027 33.5933 71.5504 34.1767 72.217 34.61C72.8837 35.0367 73.6504 35.25 74.517 35.25C75.397 35.25 76.167 35.0367 76.827 34.61C77.4937 34.1767 78.0137 33.5933 78.387 32.86C78.767 32.12 78.957 31.2967 78.957 30.39C78.957 29.4833 78.767 28.6633 78.387 27.93C78.0137 27.1967 77.4937 26.6167 76.827 26.19C76.167 25.7633 75.397 25.55 74.517 25.55C73.6504 25.55 72.8837 25.7633 72.217 26.19C71.5504 26.6167 71.027 27.1967 70.647 27.93C70.267 28.6633 70.077 29.4833 70.077 30.39ZM67.887 30.39C67.887 29.43 68.0537 28.5367 68.387 27.71C68.727 26.8767 69.1937 26.15 69.787 25.53C70.387 24.91 71.0904 24.4267 71.897 24.08C72.7037 23.7333 73.577 23.56 74.517 23.56C75.4704 23.56 76.347 23.7333 77.147 24.08C77.9537 24.4267 78.657 24.91 79.257 25.53C79.857 26.15 80.3204 26.8767 80.647 27.71C80.9737 28.5367 81.137 29.43 81.137 30.39C81.137 31.3567 80.9737 32.2567 80.647 33.09C80.327 33.9167 79.8704 34.6433 79.277 35.27C78.6837 35.89 77.9837 36.3733 77.177 36.72C76.3704 37.0667 75.4837 37.24 74.517 37.24C73.5437 37.24 72.6504 37.0667 71.837 36.72C71.0304 36.3733 70.3304 35.89 69.737 35.27C69.1504 34.6433 68.6937 33.9167 68.367 33.09C68.047 32.2567 67.887 31.3567 67.887 30.39ZM83.0673 23.8H90.1773V25.68H85.1673V29.45H89.8273V31.32H85.1673V37H83.0673V23.8ZM92.3252 23.8H99.4352V25.68H94.4252V29.45H99.0852V31.32H94.4252V37H92.3252V23.8Z" fill="white"/>
</svg>
